<svg width="65" height="65" viewBox="0 0 65 65" fill="none" xmlns="http://www.w3.org/2000/svg">
<rect x="0.875" y="0.486328" width="64" height="64" fill="#005DFF"/>
<rect x="47.7876" y="12.0303" width="36" height="36" rx="6" transform="rotate(90 47.7876 12.0303)" stroke="#1C1F23" stroke-linecap="round"/>
<rect x="53.9624" y="16.9424" width="36" height="36" rx="6" transform="rotate(90 53.9624 16.9424)" fill="white"/>
<path d="M44.2997 29.2148C44.5889 29.6322 44.8421 30.0738 45.0565 30.5347L48.1679 32.2784C48.5565 34.0324 48.5606 35.8506 48.18 37.6064L45.0565 39.35C44.8421 39.811 44.5889 40.2526 44.2997 40.6699L44.3597 44.2663C43.0411 45.4775 41.4804 46.39 39.7826 46.9424L36.7192 45.0897C36.2153 45.126 35.7095 45.126 35.2056 45.0897L32.1542 46.9303C30.4511 46.3879 28.8852 45.4789 27.5651 44.2663L27.6252 40.682C27.3384 40.2589 27.0853 39.8135 26.8683 39.35L23.7569 37.6064C23.3683 35.8524 23.3642 34.0341 23.7448 32.2784L26.8683 30.5347C27.0827 30.0738 27.3359 29.6322 27.6252 29.2148L27.5651 25.6185C28.8837 24.4073 30.4444 23.4948 32.1422 22.9424L35.2056 24.7951C35.7095 24.7587 36.2153 24.7587 36.7192 24.7951L39.7706 22.9545C41.4737 23.4968 43.0396 24.4058 44.3597 25.6185L44.2997 29.2148Z" fill="#005DFF"/>
<path d="M35.9622 40.7545C39.1469 40.7545 41.7286 38.1522 41.7286 34.9422C41.7286 31.7321 39.1469 29.1299 35.9622 29.1299C32.7775 29.1299 30.1958 31.7321 30.1958 34.9422C30.1958 38.1522 32.7775 40.7545 35.9622 40.7545Z" fill="white"/>
</svg>
