<svg width="33" height="33" viewBox="0 0 33 33" fill="none" xmlns="http://www.w3.org/2000/svg">
<g clip-path="url(#clip0_1151_6)">
<path d="M16.5002 0C7.75107 0 0.59007 6.85163 0.0517578 15.4688H11.3439V12.375C11.3439 12.1015 11.4526 11.8392 11.646 11.6458C11.8394 11.4524 12.1017 11.3438 12.3752 11.3438H20.6252C20.8987 11.3438 21.161 11.4524 21.3544 11.6458C21.5478 11.8392 21.6564 12.1015 21.6564 12.375V20.625C21.6564 20.8985 21.5478 21.1608 21.3544 21.3542C21.161 21.5476 20.8987 21.6562 20.6252 21.6562H12.3752C12.1017 21.6562 11.8394 21.5476 11.646 21.3542C11.4526 21.1608 11.3439 20.8985 11.3439 20.625V17.5312H0.0517578C0.59007 26.1484 7.75107 33 16.5002 33C25.5979 33 33.0002 25.5977 33.0002 16.5C33.0002 7.40231 25.5979 0 16.5002 0Z" fill="white"/>
</g>
<defs>
<clipPath id="clip0_1151_6">
<rect width="33" height="33" fill="white"/>
</clipPath>
</defs>
</svg>
